<svg xmlns="http://www.w3.org/2000/svg" viewBox="0 0 32 32" fill="none">
  <defs>
    <linearGradient id="appleGradient" x1="0%" y1="0%" x2="0%" y2="100%">
      <stop offset="0%" style="stop-color:#4ade80;stop-opacity:1" />
      <stop offset="100%" style="stop-color:#16a34a;stop-opacity:1" />
    </linearGradient>
  </defs>
  
  <path d="M16 28c6.5 0 10-4.5 10-10.5 0-3.5-1.5-6.5-3.5-8.5-1-1-2-1.5-3-2 0.5-1.5 1.5-3 1.5-4.5 0-1.5-1-2.5-2.5-2.5s-2.5 1-2.5 2.5c0 1 0.5 2 1 3-1.5 0.5-3 1.5-4 3-1 1.5-1.5 3.5-1.5 5.5 0 3 1 5.5 2.5 7.5s3.5 3.5 6 4c0.5 0.5 1 1 1.5 1.5z" fill="url(#appleGradient)"/>
  
  <path d="M18.5 4c0.5-0.5 1-1 1.5-1.5 0.5-0.5 1-0.5 1.5 0s0.5 1 0 1.5c-0.5 0.5-1 1-1.5 1.5-0.5 0.5-1 0.5-1.5 0s-0.5-1 0-1.5z" fill="#16a34a"/>
</svg> 